<svg id="visual" viewBox="0 0 960 540" width="960" height="540" xmlns="http://www.w3.org/2000/svg" xmlns:xlink="http://www.w3.org/1999/xlink" version="1.1"><rect x="0" y="0" width="960" height="540" fill="#4d3060"></rect><path d="M647 0L525 0L525 90L695 90L695 180L582 180L582 270L618 270L618 360L579 360L579 450L677 450L677 540L0 540L0 450L0 450L0 360L0 360L0 270L0 270L0 180L0 180L0 90L0 90L0 0L0 0Z" fill="#9900ff"></path><path d="M499 0L605 0L605 90L557 90L557 180L594 180L594 270L587 270L587 360L559 360L559 450L525 450L525 540L0 540L0 450L0 450L0 360L0 360L0 270L0 270L0 180L0 180L0 90L0 90L0 0L0 0Z" fill="#8f00ee"></path><path d="M429 0L421 0L421 90L451 90L451 180L523 180L523 270L437 270L437 360L536 360L536 450L526 450L526 540L0 540L0 450L0 450L0 360L0 360L0 270L0 270L0 180L0 180L0 90L0 90L0 0L0 0Z" fill="#8500de"></path><path d="M447 0L304 0L304 90L310 90L310 180L390 180L390 270L403 270L403 360L420 360L420 450L436 450L436 540L0 540L0 450L0 450L0 360L0 360L0 270L0 270L0 180L0 180L0 90L0 90L0 0L0 0Z" fill="#7c00ce"></path><path d="M242 0L362 0L362 90L355 90L355 180L278 180L278 270L285 270L285 360L252 360L252 450L272 450L272 540L0 540L0 450L0 450L0 360L0 360L0 270L0 270L0 180L0 180L0 90L0 90L0 0L0 0Z" fill="#7200be"></path><path d="M235 0L284 0L284 90L291 90L291 180L212 180L212 270L280 270L280 360L245 360L245 450L258 450L258 540L0 540L0 450L0 450L0 360L0 360L0 270L0 270L0 180L0 180L0 90L0 90L0 0L0 0Z" fill="#6900ae"></path><path d="M216 0L180 0L180 90L208 90L208 180L102 180L102 270L179 270L179 360L149 360L149 450L160 450L160 540L0 540L0 450L0 450L0 360L0 360L0 270L0 270L0 180L0 180L0 90L0 90L0 0L0 0Z" fill="#5f009f"></path><path d="M121 0L120 0L120 90L109 90L109 180L63 180L63 270L53 270L53 360L120 360L120 450L65 450L65 540L0 540L0 450L0 450L0 360L0 360L0 270L0 270L0 180L0 180L0 90L0 90L0 0L0 0Z" fill="#560090"></path></svg>